# xmcd CD database file
#
# Track frame offsets:
#	150
#	17613
#	37212
#	59387
#	78954
#	104845
#	124910
#	146272
#	167895
#	186971
#	206560
#
# Disc length: 2974 seconds
#
# Revision: 1
# Processed by: cddbd v1.5.1PL0 Copyright (c) Steve Scherf et al.
# Submitted via: CDex 1.51
#
DISCID=9e0b9c0b
DTITLE=The Sugar Sticks - Joe's Patio
DYEAR=2002
DGENRE=Jazz
TTITLE0=Lester's Home
TTITLE1=Frantica
TTITLE2=Junk Yard
TTITLE3=Just Remembering When
TTITLE4=Boy In The Island
TTITLE5=Joe's Patio
TTITLE6=I Spy
TTITLE7=FDDD
TTITLE8=Sword And Shield
TTITLE9=Transit
TTITLE10=Sketched Moment
EXTD=YEAR: 2002
EXTT0=
EXTT1=
EXTT2=
EXTT3=
EXTT4=
EXTT5=
EXTT6=
EXTT7=
EXTT8=
EXTT9=
EXTT10=
PLAYORDER=
